<mxfile host="www.draw.io" modified="2019-11-05T12:30:19.448Z" agent="Mozilla/5.0 (Windows NT 10.0; Win64; x64; rv:70.0) Gecko/20100101 Firefox/70.0" etag="HtXOuwN3-RBsO72P6eml" version="12.2.0" type="github" pages="1">
  <diagram id="9B5aXx-OeTy_IY9urPtJ" name="Page-1">
    <mxGraphModel dx="868" dy="467" grid="1" gridSize="10" guides="1" tooltips="1" connect="1" arrows="1" fold="1" page="1" pageScale="1" pageWidth="827" pageHeight="1169" math="0" shadow="0">
      <root>
        <mxCell id="0"/>
        <mxCell id="1" parent="0"/>
        <mxCell id="SbEF3p-PushhHjv0kQbk-1" value="" style="rounded=0;whiteSpace=wrap;html=1;" vertex="1" parent="1">
          <mxGeometry x="220" y="20" width="400" height="230" as="geometry"/>
        </mxCell>
        <mxCell id="SbEF3p-PushhHjv0kQbk-2" value="Facundo&#39;s Room (2/4)" style="text;html=1;strokeColor=none;fillColor=none;align=left;verticalAlign=middle;whiteSpace=wrap;rounded=0;fontSize=18;" vertex="1" parent="1">
          <mxGeometry x="230" y="30" width="200" height="20" as="geometry"/>
        </mxCell>
        <mxCell id="SbEF3p-PushhHjv0kQbk-3" value="&lt;font style=&quot;font-size: 12px&quot;&gt;SALIR DE LA SALA&lt;br&gt;&lt;/font&gt;" style="rounded=1;whiteSpace=wrap;html=1;fontSize=18;align=center;fillColor=#f8cecc;strokeColor=#b85450;" vertex="1" parent="1">
          <mxGeometry x="465" y="175" width="145" height="30" as="geometry"/>
        </mxCell>
        <mxCell id="SbEF3p-PushhHjv0kQbk-4" value="&lt;font style=&quot;font-size: 12px&quot;&gt;COMENZAR PARTIDA&lt;/font&gt;" style="rounded=1;whiteSpace=wrap;html=1;fontSize=18;align=center;fillColor=#d5e8d4;strokeColor=#82b366;" vertex="1" parent="1">
          <mxGeometry x="465" y="210" width="145" height="30" as="geometry"/>
        </mxCell>
        <mxCell id="SbEF3p-PushhHjv0kQbk-6" value="&lt;font style=&quot;font-size: 12px&quot;&gt;JUGADORES&lt;/font&gt;" style="text;html=1;strokeColor=none;fillColor=none;align=center;verticalAlign=middle;whiteSpace=wrap;rounded=0;fontSize=18;" vertex="1" parent="1">
          <mxGeometry x="250" y="60" width="40" height="20" as="geometry"/>
        </mxCell>
        <mxCell id="SbEF3p-PushhHjv0kQbk-7" value="" style="rounded=0;whiteSpace=wrap;html=1;fontSize=18;align=left;" vertex="1" parent="1">
          <mxGeometry x="235" y="90" width="190" height="150" as="geometry"/>
        </mxCell>
        <mxCell id="SbEF3p-PushhHjv0kQbk-8" value="&lt;font style=&quot;font-size: 12px&quot;&gt;Facundo&lt;/font&gt;" style="rounded=1;whiteSpace=wrap;html=1;fontSize=18;align=left;" vertex="1" parent="1">
          <mxGeometry x="240" y="95" width="180" height="25" as="geometry"/>
        </mxCell>
        <mxCell id="SbEF3p-PushhHjv0kQbk-9" value="&lt;font style=&quot;font-size: 12px&quot;&gt;David&lt;/font&gt;" style="rounded=1;whiteSpace=wrap;html=1;fontSize=18;align=left;" vertex="1" parent="1">
          <mxGeometry x="240" y="130" width="180" height="25" as="geometry"/>
        </mxCell>
      </root>
    </mxGraphModel>
  </diagram>
</mxfile>
